<mxfile host="app.diagrams.net" modified="2020-08-30T06:01:58.364Z" agent="5.0 (Macintosh; Intel Mac OS X 10_15_6) AppleWebKit/537.36 (KHTML, like Gecko) Chrome/84.0.4147.135 Safari/537.36" etag="uEfI3umuSGwIsod4Kjiz" version="13.6.5" type="github">
  <diagram name="Page-1" id="0783ab3e-0a74-02c8-0abd-f7b4e66b4bec">
    <mxGraphModel dx="983" dy="603" grid="1" gridSize="10" guides="1" tooltips="1" connect="1" arrows="1" fold="1" page="1" pageScale="1" pageWidth="1169" pageHeight="827" background="#ffffff" math="0" shadow="0">
      <root>
        <mxCell id="0" />
        <mxCell id="1" parent="0" />
        <mxCell id="RSENpwH8fazvTOk3t6OL-1" style="edgeStyle=orthogonalEdgeStyle;rounded=0;orthogonalLoop=1;jettySize=auto;html=1;exitX=1;exitY=0.5;exitDx=0;exitDy=0;entryX=0;entryY=0.5;entryDx=0;entryDy=0;" edge="1" parent="1" source="RSENpwH8fazvTOk3t6OL-3" target="RSENpwH8fazvTOk3t6OL-6">
          <mxGeometry relative="1" as="geometry" />
        </mxCell>
        <mxCell id="RSENpwH8fazvTOk3t6OL-2" style="edgeStyle=orthogonalEdgeStyle;rounded=0;orthogonalLoop=1;jettySize=auto;html=1;exitX=0.5;exitY=1;exitDx=0;exitDy=0;entryX=0.5;entryY=0;entryDx=0;entryDy=0;entryPerimeter=0;" edge="1" parent="1" source="RSENpwH8fazvTOk3t6OL-3" target="RSENpwH8fazvTOk3t6OL-19">
          <mxGeometry relative="1" as="geometry" />
        </mxCell>
        <mxCell id="RSENpwH8fazvTOk3t6OL-3" value="Farmer" style="rounded=1;whiteSpace=wrap;html=1;" vertex="1" parent="1">
          <mxGeometry x="130" y="60" width="90" height="30" as="geometry" />
        </mxCell>
        <mxCell id="RSENpwH8fazvTOk3t6OL-4" style="edgeStyle=orthogonalEdgeStyle;rounded=0;orthogonalLoop=1;jettySize=auto;html=1;exitX=1;exitY=0.5;exitDx=0;exitDy=0;entryX=0;entryY=0.5;entryDx=0;entryDy=0;" edge="1" parent="1" source="RSENpwH8fazvTOk3t6OL-6" target="RSENpwH8fazvTOk3t6OL-9">
          <mxGeometry relative="1" as="geometry" />
        </mxCell>
        <mxCell id="RSENpwH8fazvTOk3t6OL-5" style="edgeStyle=orthogonalEdgeStyle;rounded=0;orthogonalLoop=1;jettySize=auto;html=1;exitX=0.5;exitY=1;exitDx=0;exitDy=0;entryX=0.5;entryY=0;entryDx=0;entryDy=0;" edge="1" parent="1" source="RSENpwH8fazvTOk3t6OL-6" target="RSENpwH8fazvTOk3t6OL-17">
          <mxGeometry relative="1" as="geometry" />
        </mxCell>
        <mxCell id="RSENpwH8fazvTOk3t6OL-6" value="Farmer" style="rounded=1;whiteSpace=wrap;html=1;" vertex="1" parent="1">
          <mxGeometry x="240" y="60" width="90" height="30" as="geometry" />
        </mxCell>
        <mxCell id="RSENpwH8fazvTOk3t6OL-7" style="edgeStyle=orthogonalEdgeStyle;rounded=0;orthogonalLoop=1;jettySize=auto;html=1;exitX=1;exitY=0.5;exitDx=0;exitDy=0;entryX=0;entryY=0.5;entryDx=0;entryDy=0;" edge="1" parent="1" source="RSENpwH8fazvTOk3t6OL-9" target="RSENpwH8fazvTOk3t6OL-12">
          <mxGeometry relative="1" as="geometry" />
        </mxCell>
        <mxCell id="RSENpwH8fazvTOk3t6OL-8" style="edgeStyle=orthogonalEdgeStyle;rounded=0;orthogonalLoop=1;jettySize=auto;html=1;exitX=0.5;exitY=1;exitDx=0;exitDy=0;entryX=0.5;entryY=0;entryDx=0;entryDy=0;" edge="1" parent="1" source="RSENpwH8fazvTOk3t6OL-9" target="RSENpwH8fazvTOk3t6OL-43">
          <mxGeometry relative="1" as="geometry" />
        </mxCell>
        <mxCell id="RSENpwH8fazvTOk3t6OL-9" value="Farmer" style="rounded=1;whiteSpace=wrap;html=1;" vertex="1" parent="1">
          <mxGeometry x="350" y="60" width="90" height="30" as="geometry" />
        </mxCell>
        <mxCell id="RSENpwH8fazvTOk3t6OL-10" style="edgeStyle=orthogonalEdgeStyle;rounded=0;orthogonalLoop=1;jettySize=auto;html=1;exitX=1;exitY=0.5;exitDx=0;exitDy=0;entryX=0;entryY=0.5;entryDx=0;entryDy=0;" edge="1" parent="1" source="RSENpwH8fazvTOk3t6OL-12" target="RSENpwH8fazvTOk3t6OL-15">
          <mxGeometry relative="1" as="geometry" />
        </mxCell>
        <mxCell id="RSENpwH8fazvTOk3t6OL-11" style="edgeStyle=orthogonalEdgeStyle;rounded=0;orthogonalLoop=1;jettySize=auto;html=1;exitX=0.5;exitY=1;exitDx=0;exitDy=0;entryX=0.5;entryY=0;entryDx=0;entryDy=0;" edge="1" parent="1" source="RSENpwH8fazvTOk3t6OL-12" target="RSENpwH8fazvTOk3t6OL-45">
          <mxGeometry relative="1" as="geometry" />
        </mxCell>
        <mxCell id="RSENpwH8fazvTOk3t6OL-12" value="Farmer" style="rounded=1;whiteSpace=wrap;html=1;" vertex="1" parent="1">
          <mxGeometry x="460" y="60" width="90" height="30" as="geometry" />
        </mxCell>
        <mxCell id="RSENpwH8fazvTOk3t6OL-13" style="edgeStyle=orthogonalEdgeStyle;rounded=0;orthogonalLoop=1;jettySize=auto;html=1;exitX=0.5;exitY=1;exitDx=0;exitDy=0;entryX=0.5;entryY=0;entryDx=0;entryDy=0;" edge="1" parent="1" source="RSENpwH8fazvTOk3t6OL-15" target="RSENpwH8fazvTOk3t6OL-47">
          <mxGeometry relative="1" as="geometry" />
        </mxCell>
        <mxCell id="RSENpwH8fazvTOk3t6OL-14" style="edgeStyle=orthogonalEdgeStyle;rounded=0;orthogonalLoop=1;jettySize=auto;html=1;exitX=1;exitY=0.5;exitDx=0;exitDy=0;entryX=0;entryY=0.5;entryDx=0;entryDy=0;" edge="1" parent="1" source="RSENpwH8fazvTOk3t6OL-15" target="RSENpwH8fazvTOk3t6OL-30">
          <mxGeometry relative="1" as="geometry" />
        </mxCell>
        <mxCell id="RSENpwH8fazvTOk3t6OL-15" value="Distributor" style="rounded=1;whiteSpace=wrap;html=1;" vertex="1" parent="1">
          <mxGeometry x="570" y="60" width="90" height="30" as="geometry" />
        </mxCell>
        <mxCell id="RSENpwH8fazvTOk3t6OL-16" style="edgeStyle=orthogonalEdgeStyle;rounded=0;orthogonalLoop=1;jettySize=auto;html=1;exitX=0.5;exitY=1;exitDx=0;exitDy=0;entryX=0.5;entryY=0;entryDx=0;entryDy=0;entryPerimeter=0;" edge="1" parent="1" source="RSENpwH8fazvTOk3t6OL-17" target="RSENpwH8fazvTOk3t6OL-21">
          <mxGeometry relative="1" as="geometry" />
        </mxCell>
        <mxCell id="RSENpwH8fazvTOk3t6OL-17" value="isFamer,&lt;br&gt;isHarvested" style="rounded=0;whiteSpace=wrap;html=1;" vertex="1" parent="1">
          <mxGeometry x="240" y="120" width="90" height="40" as="geometry" />
        </mxCell>
        <mxCell id="RSENpwH8fazvTOk3t6OL-18" style="edgeStyle=orthogonalEdgeStyle;rounded=0;orthogonalLoop=1;jettySize=auto;html=1;exitX=0.5;exitY=1;exitDx=0;exitDy=0;exitPerimeter=0;entryX=0.071;entryY=0;entryDx=0;entryDy=0;entryPerimeter=0;" edge="1" parent="1" source="RSENpwH8fazvTOk3t6OL-19" target="RSENpwH8fazvTOk3t6OL-54">
          <mxGeometry relative="1" as="geometry" />
        </mxCell>
        <mxCell id="RSENpwH8fazvTOk3t6OL-19" value="harvestItem()" style="verticalLabelPosition=middle;verticalAlign=middle;shape=mxgraph.basic.diag_snip_rect;dx=6;whiteSpace=wrap;html=1;labelPosition=center;align=center;" vertex="1" parent="1">
          <mxGeometry x="130" y="185" width="90" height="40" as="geometry" />
        </mxCell>
        <mxCell id="RSENpwH8fazvTOk3t6OL-20" style="edgeStyle=orthogonalEdgeStyle;rounded=0;orthogonalLoop=1;jettySize=auto;html=1;exitX=0.5;exitY=1;exitDx=0;exitDy=0;exitPerimeter=0;entryX=0.19;entryY=0;entryDx=0;entryDy=0;entryPerimeter=0;" edge="1" parent="1" source="RSENpwH8fazvTOk3t6OL-21" target="RSENpwH8fazvTOk3t6OL-54">
          <mxGeometry relative="1" as="geometry" />
        </mxCell>
        <mxCell id="RSENpwH8fazvTOk3t6OL-21" value="processItem()" style="verticalLabelPosition=middle;verticalAlign=middle;shape=mxgraph.basic.diag_snip_rect;dx=6;whiteSpace=wrap;html=1;labelPosition=center;align=center;" vertex="1" parent="1">
          <mxGeometry x="240" y="185" width="90" height="40" as="geometry" />
        </mxCell>
        <mxCell id="RSENpwH8fazvTOk3t6OL-22" style="edgeStyle=orthogonalEdgeStyle;rounded=0;orthogonalLoop=1;jettySize=auto;html=1;exitX=0.5;exitY=1;exitDx=0;exitDy=0;exitPerimeter=0;entryX=0.31;entryY=0;entryDx=0;entryDy=0;entryPerimeter=0;" edge="1" parent="1" source="RSENpwH8fazvTOk3t6OL-23" target="RSENpwH8fazvTOk3t6OL-54">
          <mxGeometry relative="1" as="geometry" />
        </mxCell>
        <mxCell id="RSENpwH8fazvTOk3t6OL-23" value="packItem()" style="verticalLabelPosition=middle;verticalAlign=middle;shape=mxgraph.basic.diag_snip_rect;dx=6;whiteSpace=wrap;html=1;labelPosition=center;align=center;" vertex="1" parent="1">
          <mxGeometry x="350" y="185" width="90" height="40" as="geometry" />
        </mxCell>
        <mxCell id="RSENpwH8fazvTOk3t6OL-24" style="edgeStyle=orthogonalEdgeStyle;rounded=0;orthogonalLoop=1;jettySize=auto;html=1;exitX=0.5;exitY=1;exitDx=0;exitDy=0;exitPerimeter=0;entryX=0.429;entryY=0;entryDx=0;entryDy=0;entryPerimeter=0;" edge="1" parent="1" source="RSENpwH8fazvTOk3t6OL-25" target="RSENpwH8fazvTOk3t6OL-54">
          <mxGeometry relative="1" as="geometry" />
        </mxCell>
        <mxCell id="RSENpwH8fazvTOk3t6OL-25" value="sellItem()" style="verticalLabelPosition=middle;verticalAlign=middle;shape=mxgraph.basic.diag_snip_rect;dx=6;whiteSpace=wrap;html=1;labelPosition=center;align=center;" vertex="1" parent="1">
          <mxGeometry x="460" y="185" width="90" height="40" as="geometry" />
        </mxCell>
        <mxCell id="RSENpwH8fazvTOk3t6OL-26" style="edgeStyle=orthogonalEdgeStyle;rounded=0;orthogonalLoop=1;jettySize=auto;html=1;exitX=0.5;exitY=1;exitDx=0;exitDy=0;exitPerimeter=0;entryX=0.549;entryY=0;entryDx=0;entryDy=0;entryPerimeter=0;" edge="1" parent="1" source="RSENpwH8fazvTOk3t6OL-27" target="RSENpwH8fazvTOk3t6OL-54">
          <mxGeometry relative="1" as="geometry" />
        </mxCell>
        <mxCell id="RSENpwH8fazvTOk3t6OL-27" value="buyItem()" style="verticalLabelPosition=middle;verticalAlign=middle;shape=mxgraph.basic.diag_snip_rect;dx=6;whiteSpace=wrap;html=1;labelPosition=center;align=center;" vertex="1" parent="1">
          <mxGeometry x="570" y="185" width="90" height="40" as="geometry" />
        </mxCell>
        <mxCell id="RSENpwH8fazvTOk3t6OL-28" style="edgeStyle=orthogonalEdgeStyle;rounded=0;orthogonalLoop=1;jettySize=auto;html=1;exitX=0.5;exitY=1;exitDx=0;exitDy=0;entryX=0.5;entryY=0;entryDx=0;entryDy=0;" edge="1" parent="1" source="RSENpwH8fazvTOk3t6OL-30" target="RSENpwH8fazvTOk3t6OL-49">
          <mxGeometry relative="1" as="geometry" />
        </mxCell>
        <mxCell id="RSENpwH8fazvTOk3t6OL-29" style="edgeStyle=orthogonalEdgeStyle;rounded=0;orthogonalLoop=1;jettySize=auto;html=1;exitX=1;exitY=0.5;exitDx=0;exitDy=0;entryX=0;entryY=0.5;entryDx=0;entryDy=0;" edge="1" parent="1" source="RSENpwH8fazvTOk3t6OL-30" target="RSENpwH8fazvTOk3t6OL-35">
          <mxGeometry relative="1" as="geometry" />
        </mxCell>
        <mxCell id="RSENpwH8fazvTOk3t6OL-30" value="Distributor" style="rounded=1;whiteSpace=wrap;html=1;" vertex="1" parent="1">
          <mxGeometry x="680" y="60" width="90" height="30" as="geometry" />
        </mxCell>
        <mxCell id="RSENpwH8fazvTOk3t6OL-31" style="edgeStyle=orthogonalEdgeStyle;rounded=0;orthogonalLoop=1;jettySize=auto;html=1;exitX=0.5;exitY=1;exitDx=0;exitDy=0;exitPerimeter=0;entryX=0.669;entryY=0;entryDx=0;entryDy=0;entryPerimeter=0;" edge="1" parent="1" source="RSENpwH8fazvTOk3t6OL-32" target="RSENpwH8fazvTOk3t6OL-54">
          <mxGeometry relative="1" as="geometry" />
        </mxCell>
        <mxCell id="RSENpwH8fazvTOk3t6OL-32" value="shipItem()" style="verticalLabelPosition=middle;verticalAlign=middle;shape=mxgraph.basic.diag_snip_rect;dx=6;whiteSpace=wrap;html=1;labelPosition=center;align=center;" vertex="1" parent="1">
          <mxGeometry x="680" y="185" width="90" height="40" as="geometry" />
        </mxCell>
        <mxCell id="RSENpwH8fazvTOk3t6OL-33" style="edgeStyle=orthogonalEdgeStyle;rounded=0;orthogonalLoop=1;jettySize=auto;html=1;exitX=1;exitY=0.5;exitDx=0;exitDy=0;entryX=0;entryY=0.5;entryDx=0;entryDy=0;" edge="1" parent="1" source="RSENpwH8fazvTOk3t6OL-35" target="RSENpwH8fazvTOk3t6OL-39">
          <mxGeometry relative="1" as="geometry" />
        </mxCell>
        <mxCell id="RSENpwH8fazvTOk3t6OL-34" style="edgeStyle=orthogonalEdgeStyle;rounded=0;orthogonalLoop=1;jettySize=auto;html=1;exitX=0.5;exitY=1;exitDx=0;exitDy=0;entryX=0.501;entryY=-0.054;entryDx=0;entryDy=0;entryPerimeter=0;" edge="1" parent="1" source="RSENpwH8fazvTOk3t6OL-35" target="RSENpwH8fazvTOk3t6OL-51">
          <mxGeometry relative="1" as="geometry" />
        </mxCell>
        <mxCell id="RSENpwH8fazvTOk3t6OL-35" value="Retailer" style="rounded=1;whiteSpace=wrap;html=1;" vertex="1" parent="1">
          <mxGeometry x="790" y="60" width="90" height="30" as="geometry" />
        </mxCell>
        <mxCell id="RSENpwH8fazvTOk3t6OL-36" style="edgeStyle=orthogonalEdgeStyle;rounded=0;orthogonalLoop=1;jettySize=auto;html=1;exitX=0.5;exitY=1;exitDx=0;exitDy=0;exitPerimeter=0;entryX=0.788;entryY=-0.012;entryDx=0;entryDy=0;entryPerimeter=0;" edge="1" parent="1" source="RSENpwH8fazvTOk3t6OL-37" target="RSENpwH8fazvTOk3t6OL-54">
          <mxGeometry relative="1" as="geometry" />
        </mxCell>
        <mxCell id="RSENpwH8fazvTOk3t6OL-37" value="receiveItem()" style="verticalLabelPosition=middle;verticalAlign=middle;shape=mxgraph.basic.diag_snip_rect;dx=6;whiteSpace=wrap;html=1;labelPosition=center;align=center;" vertex="1" parent="1">
          <mxGeometry x="790" y="185" width="90" height="40" as="geometry" />
        </mxCell>
        <mxCell id="RSENpwH8fazvTOk3t6OL-38" style="edgeStyle=orthogonalEdgeStyle;rounded=0;orthogonalLoop=1;jettySize=auto;html=1;exitX=0.5;exitY=1;exitDx=0;exitDy=0;entryX=0.5;entryY=0;entryDx=0;entryDy=0;" edge="1" parent="1" source="RSENpwH8fazvTOk3t6OL-39" target="RSENpwH8fazvTOk3t6OL-53">
          <mxGeometry relative="1" as="geometry" />
        </mxCell>
        <mxCell id="RSENpwH8fazvTOk3t6OL-39" value="Consumer" style="rounded=1;whiteSpace=wrap;html=1;" vertex="1" parent="1">
          <mxGeometry x="900" y="60" width="90" height="30" as="geometry" />
        </mxCell>
        <mxCell id="RSENpwH8fazvTOk3t6OL-40" style="edgeStyle=orthogonalEdgeStyle;rounded=0;orthogonalLoop=1;jettySize=auto;html=1;exitX=0.5;exitY=1;exitDx=0;exitDy=0;exitPerimeter=0;entryX=0.908;entryY=-0.019;entryDx=0;entryDy=0;entryPerimeter=0;" edge="1" parent="1" source="RSENpwH8fazvTOk3t6OL-41" target="RSENpwH8fazvTOk3t6OL-54">
          <mxGeometry relative="1" as="geometry" />
        </mxCell>
        <mxCell id="RSENpwH8fazvTOk3t6OL-41" value="purchaseItem()" style="verticalLabelPosition=middle;verticalAlign=middle;shape=mxgraph.basic.diag_snip_rect;dx=6;whiteSpace=wrap;html=1;labelPosition=center;align=center;" vertex="1" parent="1">
          <mxGeometry x="900" y="185" width="90" height="40" as="geometry" />
        </mxCell>
        <mxCell id="RSENpwH8fazvTOk3t6OL-42" style="edgeStyle=orthogonalEdgeStyle;rounded=0;orthogonalLoop=1;jettySize=auto;html=1;exitX=0.5;exitY=1;exitDx=0;exitDy=0;entryX=0.5;entryY=0;entryDx=0;entryDy=0;entryPerimeter=0;" edge="1" parent="1" source="RSENpwH8fazvTOk3t6OL-43" target="RSENpwH8fazvTOk3t6OL-23">
          <mxGeometry relative="1" as="geometry" />
        </mxCell>
        <mxCell id="RSENpwH8fazvTOk3t6OL-43" value="isFarmer,&lt;br&gt;isProcessed" style="rounded=0;whiteSpace=wrap;html=1;" vertex="1" parent="1">
          <mxGeometry x="350" y="120" width="90" height="40" as="geometry" />
        </mxCell>
        <mxCell id="RSENpwH8fazvTOk3t6OL-44" style="edgeStyle=orthogonalEdgeStyle;rounded=0;orthogonalLoop=1;jettySize=auto;html=1;exitX=0.5;exitY=1;exitDx=0;exitDy=0;entryX=0.5;entryY=0;entryDx=0;entryDy=0;entryPerimeter=0;" edge="1" parent="1" source="RSENpwH8fazvTOk3t6OL-45" target="RSENpwH8fazvTOk3t6OL-25">
          <mxGeometry relative="1" as="geometry" />
        </mxCell>
        <mxCell id="RSENpwH8fazvTOk3t6OL-45" value="isFarmer,&lt;br&gt;isPacked" style="rounded=0;whiteSpace=wrap;html=1;" vertex="1" parent="1">
          <mxGeometry x="460" y="120" width="90" height="40" as="geometry" />
        </mxCell>
        <mxCell id="RSENpwH8fazvTOk3t6OL-46" style="edgeStyle=orthogonalEdgeStyle;rounded=0;orthogonalLoop=1;jettySize=auto;html=1;exitX=0.5;exitY=1;exitDx=0;exitDy=0;entryX=0.5;entryY=0;entryDx=0;entryDy=0;entryPerimeter=0;" edge="1" parent="1" source="RSENpwH8fazvTOk3t6OL-47" target="RSENpwH8fazvTOk3t6OL-27">
          <mxGeometry relative="1" as="geometry" />
        </mxCell>
        <mxCell id="RSENpwH8fazvTOk3t6OL-47" value="isForSale,&lt;br&gt;paidEnough,&lt;br&gt;checkValue" style="rounded=0;whiteSpace=wrap;html=1;" vertex="1" parent="1">
          <mxGeometry x="570" y="120" width="90" height="50" as="geometry" />
        </mxCell>
        <mxCell id="RSENpwH8fazvTOk3t6OL-48" style="edgeStyle=orthogonalEdgeStyle;rounded=0;orthogonalLoop=1;jettySize=auto;html=1;exitX=0.5;exitY=1;exitDx=0;exitDy=0;entryX=0.5;entryY=0;entryDx=0;entryDy=0;entryPerimeter=0;" edge="1" parent="1" source="RSENpwH8fazvTOk3t6OL-49" target="RSENpwH8fazvTOk3t6OL-32">
          <mxGeometry relative="1" as="geometry" />
        </mxCell>
        <mxCell id="RSENpwH8fazvTOk3t6OL-49" value="isSold,&lt;br&gt;isDistributor" style="rounded=0;whiteSpace=wrap;html=1;" vertex="1" parent="1">
          <mxGeometry x="680" y="120" width="90" height="40" as="geometry" />
        </mxCell>
        <mxCell id="RSENpwH8fazvTOk3t6OL-50" style="edgeStyle=orthogonalEdgeStyle;rounded=0;orthogonalLoop=1;jettySize=auto;html=1;exitX=0.5;exitY=1;exitDx=0;exitDy=0;entryX=0.5;entryY=0;entryDx=0;entryDy=0;entryPerimeter=0;" edge="1" parent="1" source="RSENpwH8fazvTOk3t6OL-51" target="RSENpwH8fazvTOk3t6OL-37">
          <mxGeometry relative="1" as="geometry" />
        </mxCell>
        <mxCell id="RSENpwH8fazvTOk3t6OL-51" value="isShipped" style="rounded=0;whiteSpace=wrap;html=1;" vertex="1" parent="1">
          <mxGeometry x="790" y="120" width="90" height="40" as="geometry" />
        </mxCell>
        <mxCell id="RSENpwH8fazvTOk3t6OL-52" style="edgeStyle=orthogonalEdgeStyle;rounded=0;orthogonalLoop=1;jettySize=auto;html=1;exitX=0.5;exitY=1;exitDx=0;exitDy=0;entryX=0.5;entryY=0;entryDx=0;entryDy=0;entryPerimeter=0;" edge="1" parent="1" source="RSENpwH8fazvTOk3t6OL-53" target="RSENpwH8fazvTOk3t6OL-41">
          <mxGeometry relative="1" as="geometry" />
        </mxCell>
        <mxCell id="RSENpwH8fazvTOk3t6OL-53" value="isReceived" style="rounded=0;whiteSpace=wrap;html=1;" vertex="1" parent="1">
          <mxGeometry x="900" y="120" width="90" height="40" as="geometry" />
        </mxCell>
        <mxCell id="RSENpwH8fazvTOk3t6OL-54" value="Coffee State" style="swimlane;html=1;" vertex="1" parent="1">
          <mxGeometry x="110" y="270" width="920" height="100" as="geometry" />
        </mxCell>
        <mxCell id="RSENpwH8fazvTOk3t6OL-55" value="Harvested" style="rounded=0;whiteSpace=wrap;html=1;" vertex="1" parent="RSENpwH8fazvTOk3t6OL-54">
          <mxGeometry x="20" y="40" width="90" height="40" as="geometry" />
        </mxCell>
        <mxCell id="RSENpwH8fazvTOk3t6OL-56" value="Processed" style="rounded=0;whiteSpace=wrap;html=1;" vertex="1" parent="RSENpwH8fazvTOk3t6OL-54">
          <mxGeometry x="130" y="40" width="90" height="40" as="geometry" />
        </mxCell>
        <mxCell id="RSENpwH8fazvTOk3t6OL-57" value="Packed" style="rounded=0;whiteSpace=wrap;html=1;" vertex="1" parent="RSENpwH8fazvTOk3t6OL-54">
          <mxGeometry x="240" y="40" width="90" height="40" as="geometry" />
        </mxCell>
        <mxCell id="RSENpwH8fazvTOk3t6OL-58" value="ForSale" style="rounded=0;whiteSpace=wrap;html=1;" vertex="1" parent="RSENpwH8fazvTOk3t6OL-54">
          <mxGeometry x="350" y="40" width="90" height="40" as="geometry" />
        </mxCell>
        <mxCell id="RSENpwH8fazvTOk3t6OL-59" value="Sold" style="rounded=0;whiteSpace=wrap;html=1;" vertex="1" parent="RSENpwH8fazvTOk3t6OL-54">
          <mxGeometry x="460" y="40" width="90" height="40" as="geometry" />
        </mxCell>
        <mxCell id="RSENpwH8fazvTOk3t6OL-60" value="Shipped" style="rounded=0;whiteSpace=wrap;html=1;" vertex="1" parent="RSENpwH8fazvTOk3t6OL-54">
          <mxGeometry x="570" y="40" width="90" height="40" as="geometry" />
        </mxCell>
        <mxCell id="RSENpwH8fazvTOk3t6OL-61" value="Received" style="rounded=0;whiteSpace=wrap;html=1;" vertex="1" parent="RSENpwH8fazvTOk3t6OL-54">
          <mxGeometry x="680" y="40" width="90" height="40" as="geometry" />
        </mxCell>
        <mxCell id="RSENpwH8fazvTOk3t6OL-62" value="Purchased" style="rounded=0;whiteSpace=wrap;html=1;" vertex="1" parent="RSENpwH8fazvTOk3t6OL-54">
          <mxGeometry x="790" y="40" width="90" height="40" as="geometry" />
        </mxCell>
      </root>
    </mxGraphModel>
  </diagram>
</mxfile>
